<!DOCTYPE svg PUBLIC "-//W3C//DTD SVG 20010904//EN" "http://www.w3.org/TR/2001/REC-SVG-20010904/DTD/svg10.dtd">
<svg version="1.0" xmlns="http://www.w3.org/2000/svg" width="1200px" height="540px" viewBox="0 0 12000 5400" preserveAspectRatio="xMidYMid meet">
<g id="layer101" fill="#0a4281" stroke="none">
<path d="M8 2700 l-3 -2700 5998 0 5997 0 0 2700 0 2700 -5995 0 -5995 0 -2 -2700z"/>
</g>
<g id="layer102" fill="#9c1a2c" stroke="none">
<path d="M8 2700 l-3 -2700 5998 0 5997 0 0 2700 0 2700 -5995 0 -5995 0 -2 -2700z m1073 1568 c14 -21 12 -23 -51 -78 -33 -29 -75 -72 -92 -96 -22 -31 -38 -44 -56 -44 -14 0 -38 -14 -59 -35 -19 -19 -36 -35 -38 -35 -9 0 -75 111 -75 127 0 11 10 29 23 41 24 23 196 119 237 133 34 11 101 4 111 -13z m774 12 c63 -24 35 -69 -64 -100 -36 -12 -86 -37 -111 -56 -27 -22 -50 -32 -60 -28 -36 15 -61 15 -85 0 -13 -9 -26 -16 -28 -16 -3 0 -10 20 -16 44 -15 60 -14 133 2 143 11 8 135 17 274 21 34 1 73 -2 88 -8z m2865 -1120 c66 -33 205 -180 284 -300 38 -58 73 -109 77 -113 3 -5 -9 42 -29 105 -45 148 -50 243 -12 283 44 47 76 58 160 53 146 -8 264 -88 377 -254 47 -70 54 -86 43 -99 -21 -26 -36 -17 -84 46 -54 73 -108 113 -141 105 -47 -12 -47 -11 111 -551 58 -198 119 -403 135 -455 16 -52 29 -100 29 -107 0 -10 -28 -13 -119 -13 -65 0 -139 3 -164 6 l-45 6 -22 84 c-13 46 -24 84 -26 84 -1 0 -10 -24 -19 -52 -24 -74 -57 -113 -110 -133 -127 -49 -325 40 -495 222 -154 165 -284 431 -320 656 -31 194 26 382 132 436 58 30 171 26 238 -9z m1561 11 c153 -39 267 -107 393 -234 l79 -79 -21 -20 -20 -20 -56 46 c-153 125 -330 168 -447 109 -110 -56 -156 -160 -146 -328 22 -381 263 -738 500 -740 52 0 62 3 82 27 31 36 23 60 -32 105 -54 45 -73 79 -73 134 0 115 128 177 235 115 129 -76 146 -267 33 -373 -73 -69 -238 -92 -388 -54 -318 79 -579 336 -686 676 -26 80 -29 105 -29 225 0 118 3 142 23 192 25 63 93 145 148 179 97 60 263 76 405 40z m923 -20 c82 -40 169 -120 232 -211 39 -58 45 -72 34 -85 -20 -25 -36 -18 -73 33 -101 136 -197 178 -197 87 0 -19 39 -159 86 -312 47 -153 109 -353 137 -445 l52 -168 80 0 80 0 23 -78 c12 -43 22 -81 22 -85 0 -4 -34 -7 -76 -7 -67 0 -75 -2 -70 -17 2 -10 27 -92 56 -183 28 -91 53 -173 56 -182 4 -15 -1 -18 -29 -18 -31 0 -48 14 -168 134 -142 141 -235 210 -369 272 -117 54 -123 57 -130 84 -4 14 -10 37 -14 53 l-6 27 96 0 c73 0 95 3 91 13 -28 77 -252 808 -264 861 -26 126 0 204 82 247 33 17 54 20 122 16 67 -3 93 -9 147 -36z m976 14 c132 -41 255 -120 378 -243 63 -63 69 -77 41 -95 -12 -7 -33 3 -87 42 -198 145 -401 179 -510 86 -56 -49 -74 -99 -73 -211 1 -51 3 -98 6 -106 4 -9 45 -19 128 -31 284 -38 507 -163 628 -349 96 -149 92 -306 -10 -375 -45 -30 -94 -43 -166 -43 -293 0 -615 187 -799 464 -153 229 -209 516 -133 681 52 112 105 158 217 190 74 20 301 14 380 -10z m956 -15 c117 -57 277 -232 476 -520 l17 -25 -8 30 c-5 17 -28 95 -51 175 -54 183 -58 259 -18 312 58 76 198 90 315 32 71 -36 172 -134 237 -232 46 -70 47 -74 30 -87 -11 -8 -22 -13 -27 -12 -4 1 -35 36 -70 77 -69 82 -110 106 -132 77 -16 -23 -19 -14 156 -597 77 -256 143 -474 146 -484 5 -18 -1 -19 -172 -13 -97 3 -178 7 -180 9 -2 2 -34 100 -70 218 -39 125 -82 242 -103 280 -182 329 -388 562 -473 535 -38 -12 -41 -3 232 -856 38 -119 69 -219 69 -223 0 -14 -100 -4 -330 35 -135 23 -248 47 -252 53 -4 6 -8 19 -8 29 0 14 9 17 44 17 58 0 96 29 96 75 0 49 -35 173 -150 530 -93 291 -103 327 -104 401 -1 72 2 85 26 122 61 91 173 107 304 42z m-5421 -11 c4 -11 5 -22 3 -23 -1 -2 -38 -8 -81 -14 -91 -12 -123 -30 -144 -80 -24 -57 -24 -54 175 -751 l27 -94 141 6 c111 4 151 9 186 25 87 38 125 123 114 250 l-7 73 27 -3 c26 -3 29 -10 110 -293 46 -159 95 -329 108 -377 l25 -88 -27 0 c-22 0 -32 9 -52 47 -43 82 -114 149 -204 193 -74 37 -91 42 -203 51 -67 6 -137 9 -156 7 l-34 -3 105 -362 105 -363 196 0 c130 0 218 5 262 14 172 37 247 120 272 300 11 83 13 87 36 84 23 -3 28 -16 87 -248 35 -135 64 -248 64 -252 0 -5 -355 -8 -789 -8 l-789 0 -4 25 c-4 21 -1 25 18 25 61 0 130 24 161 55 40 40 41 64 12 178 -31 121 -368 1295 -395 1374 -51 152 -109 204 -241 219 -35 3 -63 10 -63 14 0 5 -3 15 -6 24 -6 14 40 16 474 16 478 0 481 0 487 -21z m6892 -159 c66 -212 125 -363 210 -535 90 -183 154 -265 205 -265 23 0 34 9 58 49 51 83 112 90 174 20 71 -78 100 -278 51 -352 -37 -57 -107 -72 -181 -38 -94 43 -183 175 -355 523 -55 112 -98 196 -96 188 2 -8 54 -174 116 -368 61 -193 111 -354 111 -357 0 -23 -555 72 -572 97 -15 24 -8 28 47 28 113 0 146 46 121 167 -9 39 -40 156 -70 260 -110 379 -216 751 -216 757 0 4 77 5 172 4 l172 -3 53 -175z m-9007 -566 c8 -8 4 -55 -16 -175 -15 -90 -28 -165 -29 -167 -2 -2 -40 7 -86 19 -46 12 -123 24 -170 26 -148 9 -196 -27 -285 -213 -24 -50 -44 -95 -44 -100 1 -14 164 -113 190 -116 17 -2 25 3 28 17 2 11 22 66 44 122 46 115 28 104 202 123 54 6 101 9 104 5 8 -7 4 -81 -10 -170 -5 -38 -12 -114 -14 -169 -4 -104 -16 -136 -66 -184 -23 -21 -139 -82 -157 -82 -5 0 0 17 11 39 12 25 17 48 13 64 -13 51 -49 42 -146 -35 -30 -24 -70 -53 -91 -65 l-36 -21 -65 53 c-110 91 -116 135 -58 390 38 167 50 287 51 491 l0 151 98 -4 c53 -2 131 0 172 5 100 13 346 10 360 -4z m-550 -1259 c8 -10 9 -15 1 -15 -19 0 -43 -47 -36 -70 5 -17 13 -21 31 -17 21 4 23 1 17 -22 -3 -14 -7 -28 -9 -30 -8 -9 -33 10 -62 47 l-32 39 30 42 c33 45 41 49 60 26z m131 -196 l24 -20 -33 5 c-18 3 -43 13 -55 21 -21 15 -21 15 10 15 17 0 41 -9 54 -21z"/>
</g>
<g id="layer103" fill="#dda268" stroke="none">
<path d="M8 2700 l-3 -2700 5998 0 5997 0 0 2700 0 2700 -5995 0 -5995 0 -2 -2700z m1073 1568 c14 -21 12 -23 -51 -78 -33 -29 -75 -72 -92 -96 -22 -31 -38 -44 -56 -44 -14 0 -38 -14 -59 -35 -19 -19 -36 -35 -38 -35 -9 0 -75 111 -75 127 0 11 10 29 23 41 24 23 196 119 237 133 34 11 101 4 111 -13z m774 12 c63 -24 35 -69 -64 -100 -36 -12 -82 -34 -101 -49 -52 -41 -55 -42 -89 -30 -24 8 -37 7 -62 -5 -18 -9 -33 -16 -34 -16 -2 0 -8 20 -14 44 -15 60 -14 133 2 143 11 8 135 17 274 21 34 1 73 -2 88 -8z m2942 -47 c14 -16 54 -102 89 -193 36 -91 72 -171 81 -177 14 -11 9 -13 -32 -13 -43 0 -47 1 -30 13 21 16 18 46 -13 117 l-20 45 -31 -68 c-36 -79 -38 -94 -13 -100 9 -3 -19 -5 -62 -6 l-79 -1 20 23 c11 12 44 75 73 140 l53 118 -19 46 c-20 50 -44 68 -44 34 0 -26 -29 -42 -52 -30 -25 13 -22 45 4 63 32 22 47 20 75 -11z m2096 17 c-21 -8 -23 -16 -23 -80 l0 -71 22 15 c28 20 61 20 97 1 75 -38 82 -187 12 -250 -28 -24 -84 -25 -111 0 -18 16 -20 16 -20 2 0 -14 -11 -17 -62 -17 -48 1 -59 3 -45 11 15 9 17 29 17 194 0 165 -2 185 -17 194 -13 8 5 10 67 10 61 0 79 -3 63 -9z m327 3 c-28 -10 -35 -30 -32 -91 4 -61 4 -62 25 -47 40 28 103 13 132 -32 22 -33 30 -113 16 -155 -24 -73 -103 -106 -151 -63 -18 16 -20 16 -20 2 0 -14 -11 -17 -62 -17 -48 1 -59 3 -45 11 15 9 17 29 17 194 0 165 -2 185 -17 194 -13 8 5 10 67 10 47 0 78 -3 70 -6z m868 -19 c34 -22 48 -58 34 -89 -15 -33 -49 -45 -128 -45 -51 0 -66 -4 -71 -16 -8 -21 25 -47 51 -40 27 7 102 -27 115 -52 14 -26 14 -68 1 -93 -9 -16 -7 -19 15 -19 14 0 25 -6 25 -14 0 -10 -21 -15 -81 -18 -103 -6 -123 -2 -159 32 -39 37 -41 90 -5 125 13 14 29 25 36 25 6 0 -3 13 -20 29 -34 32 -41 71 -16 91 14 11 13 14 -5 27 -58 41 19 87 130 77 30 -3 65 -12 78 -20z m2237 20 c21 -8 41 -49 110 -224 31 -80 64 -153 72 -162 15 -17 13 -18 -33 -17 -39 0 -45 2 -26 9 12 5 22 14 22 19 0 12 -42 124 -50 134 -4 4 -21 -25 -39 -65 -30 -68 -31 -73 -15 -85 15 -11 5 -13 -61 -13 -65 0 -76 2 -62 13 9 6 43 70 76 141 58 128 59 129 44 165 -19 45 -33 62 -44 55 -5 -3 -9 -14 -9 -25 0 -26 -46 -26 -60 1 -8 15 -6 24 10 40 21 21 37 24 65 14z m-7058 -186 c6 -35 9 -65 8 -66 -2 -2 -11 10 -19 26 -27 52 -62 72 -126 72 -68 0 -70 -2 -70 -102 l0 -70 28 7 c35 8 41 14 57 61 14 37 14 34 14 -71 -1 -90 -3 -104 -11 -80 -15 42 -37 65 -65 65 -22 0 -23 -3 -23 -80 l0 -80 60 0 c51 0 65 4 85 25 14 13 25 31 25 39 0 8 5 18 10 21 6 4 10 -17 10 -54 l0 -61 -172 1 c-95 1 -164 4 -153 6 43 11 45 18 45 192 0 91 -4 171 -8 178 -4 7 -19 16 -32 22 -18 7 25 10 151 10 l176 1 10 -62z m159 40 c-11 -16 -16 -46 -16 -98 0 -86 17 -123 53 -118 21 3 22 9 25 106 2 85 0 103 -13 108 -35 14 -10 24 57 24 68 0 70 -1 55 -18 -13 -15 -17 -39 -17 -116 0 -106 -8 -132 -46 -146 -23 -9 -48 -3 -106 28 -5 2 -8 -3 -8 -12 0 -13 -12 -16 -57 -16 -44 1 -54 3 -40 11 15 9 17 26 17 126 0 99 -3 118 -17 129 -16 12 -8 13 55 14 l73 0 -15 -22z m321 4 c-12 -13 -17 -37 -17 -85 0 -104 28 -150 69 -113 10 9 25 14 34 10 32 -12 32 -66 1 -78 -20 -8 -69 18 -88 46 -16 22 -16 22 -16 -10 l0 -32 -57 0 c-44 1 -54 3 -40 11 25 15 26 223 0 251 -15 17 -13 18 57 18 70 0 72 -1 57 -18z m253 12 c0 -3 -7 -12 -15 -20 -12 -12 -15 -42 -15 -135 l0 -119 -57 0 c-44 1 -54 3 -40 11 15 9 17 26 17 126 0 99 -3 118 -17 129 -16 12 -8 13 55 14 39 0 72 -3 72 -6z m200 -16 c40 -27 56 -57 21 -38 -39 21 -83 9 -105 -29 -41 -70 -18 -210 28 -171 9 7 16 23 16 36 0 31 42 53 65 34 21 -17 19 -34 -8 -66 -19 -22 -32 -27 -68 -27 -81 0 -131 55 -131 143 0 114 96 176 182 118z m186 0 c-11 -16 -16 -46 -16 -104 0 -67 3 -84 19 -98 11 -10 28 -16 38 -14 16 3 18 16 21 102 2 81 0 102 -14 117 -17 18 -15 19 54 19 67 0 92 -10 57 -24 -12 -4 -15 -26 -15 -105 0 -116 -3 -127 -41 -146 -31 -16 -68 -8 -101 22 -17 15 -18 11 -18 -70 l0 -87 -57 0 c-44 1 -54 3 -40 11 15 9 17 29 17 194 0 158 -2 185 -15 185 -8 0 -15 5 -15 10 0 6 30 10 71 10 l70 0 -15 -22z m795 6 c20 -10 38 -32 51 -61 37 -85 0 -181 -80 -202 -90 -25 -162 37 -162 142 0 104 101 168 191 121z m239 1 c27 -14 30 -14 30 0 0 12 13 15 63 15 54 -1 60 -2 45 -14 -16 -11 -18 -31 -18 -140 l0 -126 -62 0 c-48 1 -59 3 -45 11 14 8 17 25 17 109 0 104 -12 135 -49 128 -14 -3 -16 -22 -19 -126 l-3 -122 -57 0 c-40 0 -52 3 -42 10 11 7 16 35 18 117 3 93 7 111 25 131 24 26 56 28 97 7z m298 1 c-15 -11 -18 -29 -18 -95 0 -45 5 -91 10 -102 11 -19 50 -27 50 -10 0 15 32 22 46 10 20 -16 17 -57 -3 -67 -22 -12 -52 -1 -77 27 -25 28 -36 27 -36 -4 0 -24 -3 -25 -57 -24 -32 1 -50 3 -40 6 15 4 17 19 17 127 0 81 -4 126 -12 134 -9 9 5 12 63 12 64 -1 72 -2 57 -14z m397 -10 c18 -18 25 -36 25 -65 0 -34 -5 -44 -36 -68 -20 -15 -51 -40 -68 -56 -30 -26 -30 -28 -12 -42 11 -8 24 -15 28 -15 10 0 47 37 65 66 11 17 13 13 11 -26 -2 -52 -7 -67 -18 -50 -6 10 -15 10 -38 2 -41 -14 -81 -2 -105 31 -31 41 -14 82 56 135 44 33 57 50 55 66 -5 37 -50 33 -87 -9 l-31 -36 0 43 0 43 65 3 c58 2 68 0 90 -22z m171 2 c-11 -16 -16 -46 -16 -104 0 -67 3 -84 19 -98 11 -10 28 -16 38 -14 16 3 18 16 21 102 2 81 0 102 -14 117 -17 18 -15 19 56 19 70 0 72 -1 57 -18 -14 -15 -17 -40 -17 -119 0 -83 -3 -105 -18 -124 -24 -29 -73 -29 -112 0 l-30 22 0 -86 0 -85 -57 0 c-44 1 -54 3 -40 11 15 9 17 29 17 191 0 160 -2 182 -17 194 -16 12 -8 13 55 14 l73 0 -15 -22z m383 8 c75 -39 93 -156 34 -226 -36 -43 -93 -56 -141 -33 -73 36 -101 118 -68 198 27 64 112 93 175 61z m848 -4 c-14 -15 -17 -41 -17 -140 l0 -122 -56 0 c-50 0 -54 1 -40 16 24 23 23 220 -1 246 -15 17 -13 18 57 18 70 0 72 -1 57 -18z m153 8 c0 -5 -4 -10 -10 -10 -13 0 -13 -176 0 -201 6 -11 21 -19 35 -19 l25 0 0 108 c0 71 -4 112 -12 120 -9 9 3 12 55 12 38 0 67 -4 67 -10 0 -5 -4 -10 -9 -10 -5 0 -10 -49 -13 -109 -3 -115 -11 -135 -56 -152 -19 -7 -34 -5 -63 11 -32 16 -39 17 -39 5 0 -12 -13 -15 -56 -15 -50 0 -54 1 -40 16 24 23 23 220 -1 246 -15 17 -13 18 50 18 38 0 67 -4 67 -10z m880 0 c0 -5 -7 -10 -15 -10 -13 0 -15 -21 -15 -130 l0 -130 -60 0 -60 0 20 20 c17 17 20 33 20 118 0 101 -4 114 -32 125 -31 11 -38 -25 -38 -212 l0 -181 -57 0 c-44 1 -54 3 -40 11 15 9 17 29 17 194 0 158 -2 185 -15 185 -8 0 -15 5 -15 10 0 6 55 10 145 10 90 0 145 -4 145 -10z m171 -19 c50 -51 33 -100 -57 -162 -25 -17 -44 -38 -44 -48 0 -43 59 -29 90 21 l20 33 0 -54 c0 -43 -3 -51 -13 -42 -9 7 -24 8 -46 1 -60 -17 -110 18 -111 76 0 34 29 69 85 104 38 24 50 47 34 66 -19 24 -50 16 -85 -22 l-34 -35 0 43 0 43 66 3 c61 2 68 0 95 -27z m197 13 c12 -8 22 -20 22 -26 0 -7 -5 -6 -15 2 -8 7 -22 10 -30 6 -12 -4 -15 -26 -15 -111 l0 -105 35 0 c24 0 35 -5 35 -15 0 -10 -11 -15 -35 -15 l-35 0 -1 -52 c0 -53 0 -53 -17 -28 -9 14 -36 44 -60 68 -38 36 -42 42 -23 42 20 0 21 4 21 102 0 91 2 104 22 125 25 27 64 30 96 7z m319 -80 c18 -49 34 -93 36 -98 1 -5 20 37 42 93 21 55 41 101 45 101 4 0 30 -60 56 -132 45 -122 51 -133 74 -133 l25 0 3 123 c2 104 0 122 -13 122 -8 0 -15 5 -15 10 0 6 30 10 71 10 l70 0 -15 -22 c-12 -17 -16 -50 -16 -140 l0 -118 -97 0 c-80 0 -94 2 -80 13 16 11 16 17 -7 82 -14 41 -26 64 -29 55 -48 -124 -48 -124 -30 -137 14 -11 4 -13 -58 -13 -41 0 -69 4 -63 8 29 19 32 46 12 97 -11 27 -21 51 -22 53 -5 4 -46 -114 -46 -131 0 -8 6 -18 13 -20 6 -3 -21 -6 -60 -6 -70 -1 -72 0 -55 17 9 9 37 72 62 140 25 67 49 121 54 119 5 -2 24 -43 43 -93z m568 72 c18 -18 25 -36 25 -65 0 -34 -5 -44 -36 -68 -20 -15 -51 -40 -68 -55 -29 -25 -30 -28 -14 -44 23 -23 60 -7 88 38 l20 33 0 -54 c0 -46 -2 -52 -15 -41 -10 9 -23 9 -43 2 -60 -21 -112 11 -112 69 0 43 8 55 66 99 42 31 54 47 52 63 -2 15 -11 23 -29 25 -21 2 -34 -6 -58 -35 l-31 -38 0 45 0 45 65 3 c58 2 68 0 90 -22z m248 -16 c22 -22 37 -43 33 -47 -3 -4 -13 3 -22 15 -10 15 -26 22 -48 22 -39 0 -63 -23 -72 -68 l-6 -32 76 0 c84 0 88 -3 62 -63 -20 -48 -50 -70 -94 -70 -75 0 -122 58 -122 150 0 84 42 131 119 132 26 1 42 -8 74 -39z m173 18 c-13 -18 -16 -56 -16 -205 l0 -183 -57 0 c-50 1 -56 2 -40 14 15 12 17 33 17 186 0 147 -2 176 -17 192 -15 17 -13 18 56 18 l72 0 -15 -22z m364 8 c15 -19 9 -56 -11 -69 -23 -14 -66 -1 -72 22 -11 45 53 82 83 47z m-6618 -341 c8 -19 8 -28 -2 -40 -25 -30 -80 -12 -80 25 0 44 63 55 82 15z m3522 3 c21 -30 4 -58 -34 -58 -38 0 -55 28 -34 58 8 12 24 22 34 22 10 0 26 -10 34 -22z m1020 0 c24 -40 -44 -80 -71 -42 -17 23 -16 29 3 49 20 20 53 16 68 -7z m1080 6 c19 -19 20 -36 4 -52 -26 -26 -78 -7 -78 28 0 38 46 53 74 24z m-8282 -411 c10 -9 18 -22 18 -30 0 -7 6 -24 14 -36 12 -20 20 -69 43 -272 l6 -60 10 40 c5 22 10 87 10 145 l2 105 40 7 c68 12 220 9 238 -4 18 -15 22 -71 12 -208 -14 -213 -49 -451 -85 -582 -10 -36 -16 -69 -14 -71 5 -4 -45 -328 -51 -335 -2 -2 -40 7 -86 19 -46 12 -123 24 -170 26 -148 9 -196 -27 -285 -213 -24 -50 -44 -95 -44 -100 1 -14 164 -113 190 -116 17 -2 25 3 28 17 2 11 22 66 44 122 46 115 28 104 202 123 54 6 101 9 104 5 8 -7 4 -81 -10 -170 -5 -38 -12 -114 -14 -169 -4 -104 -16 -136 -66 -184 -23 -21 -139 -82 -157 -82 -5 0 0 17 11 39 12 25 17 48 13 64 -13 51 -49 42 -146 -35 -30 -24 -70 -53 -91 -65 l-36 -21 -65 53 c-110 91 -116 135 -58 390 38 167 50 287 51 492 0 90 4 154 10 158 6 3 10 33 10 65 0 60 38 306 65 415 21 86 33 194 27 235 -3 19 -16 52 -30 72 l-25 38 24 20 c77 66 172 118 218 119 14 1 33 -6 43 -16z m3408 -213 c66 -33 205 -180 284 -300 38 -58 73 -109 77 -113 3 -5 -9 42 -29 105 -45 148 -50 243 -12 283 44 47 76 58 160 53 146 -8 264 -88 377 -254 47 -70 54 -86 43 -99 -21 -26 -36 -17 -84 46 -54 73 -108 113 -141 105 -47 -12 -47 -11 111 -551 58 -198 119 -403 135 -455 16 -52 29 -100 29 -107 0 -10 -28 -13 -119 -13 -65 0 -139 3 -164 6 l-45 6 -22 84 c-13 46 -24 84 -26 84 -1 0 -10 -24 -19 -52 -24 -74 -57 -113 -110 -133 -127 -49 -325 40 -495 222 -154 165 -284 431 -320 656 -31 194 26 382 132 436 58 30 171 26 238 -9z m1561 11 c153 -39 267 -107 393 -234 l79 -79 -21 -20 -20 -20 -56 46 c-153 125 -330 168 -447 109 -110 -56 -156 -160 -146 -328 22 -381 263 -738 500 -740 52 0 62 3 82 27 31 36 23 60 -32 105 -54 45 -73 79 -73 134 0 115 128 177 235 115 129 -76 146 -267 33 -373 -73 -69 -238 -92 -388 -54 -318 79 -579 336 -686 676 -26 80 -29 105 -29 225 0 118 3 142 23 192 25 63 93 145 148 179 97 60 263 76 405 40z m923 -20 c82 -40 169 -120 232 -211 39 -58 45 -72 34 -85 -20 -25 -36 -18 -73 33 -101 136 -197 178 -197 87 0 -19 39 -159 86 -312 47 -153 109 -353 137 -445 l52 -168 80 0 80 0 23 -78 c12 -43 22 -81 22 -85 0 -4 -34 -7 -76 -7 -67 0 -75 -2 -70 -17 2 -10 27 -92 56 -183 28 -91 53 -173 56 -182 4 -15 -1 -18 -29 -18 -31 0 -48 14 -168 134 -142 141 -235 210 -369 272 -117 54 -123 57 -130 84 -4 14 -10 37 -14 53 l-6 27 96 0 c73 0 95 3 91 13 -28 77 -252 808 -264 861 -26 126 0 204 82 247 33 17 54 20 122 16 67 -3 93 -9 147 -36z m976 14 c132 -41 255 -120 378 -243 63 -63 69 -77 41 -95 -12 -7 -33 3 -87 42 -198 145 -401 179 -510 86 -56 -49 -74 -99 -73 -211 1 -51 3 -98 6 -106 4 -9 45 -19 128 -31 284 -38 507 -163 628 -349 96 -149 92 -306 -10 -375 -45 -30 -94 -43 -166 -43 -293 0 -615 187 -799 464 -153 229 -209 516 -133 681 52 112 105 158 217 190 74 20 301 14 380 -10z m956 -15 c117 -57 277 -232 476 -520 l17 -25 -8 30 c-5 17 -28 95 -51 175 -54 183 -58 259 -18 312 58 76 198 90 315 32 71 -36 172 -134 237 -232 46 -70 47 -74 30 -87 -11 -8 -22 -13 -27 -12 -4 1 -35 36 -70 77 -69 82 -110 106 -132 77 -16 -23 -19 -14 156 -597 77 -256 143 -474 146 -484 5 -18 -1 -19 -172 -13 -97 3 -178 7 -180 9 -2 2 -34 100 -70 218 -39 125 -82 242 -103 280 -182 329 -388 562 -473 535 -38 -12 -41 -3 232 -856 38 -119 69 -219 69 -223 0 -14 -100 -4 -330 35 -135 23 -248 47 -252 53 -4 6 -8 19 -8 29 0 14 9 17 44 17 58 0 96 29 96 75 0 49 -35 173 -150 530 -93 291 -103 327 -104 401 -1 72 2 85 26 122 61 91 173 107 304 42z m-5421 -11 c4 -11 5 -22 3 -23 -1 -2 -38 -8 -81 -14 -91 -12 -123 -30 -144 -80 -24 -57 -24 -54 175 -751 l27 -94 141 6 c111 4 151 9 186 25 87 38 125 123 114 250 l-7 73 27 -3 c26 -3 29 -10 110 -293 46 -159 95 -329 108 -377 l25 -88 -27 0 c-22 0 -32 9 -52 47 -43 82 -114 149 -204 193 -74 37 -91 42 -203 51 -67 6 -137 9 -156 7 l-34 -3 105 -362 105 -363 196 0 c130 0 218 5 262 14 172 37 247 120 272 300 11 83 13 87 36 84 23 -3 28 -16 87 -248 35 -135 64 -248 64 -252 0 -5 -355 -8 -789 -8 l-789 0 -4 25 c-4 21 -1 25 18 25 61 0 130 24 161 55 40 40 41 64 12 178 -31 121 -368 1295 -395 1374 -51 152 -109 204 -241 219 -35 3 -63 10 -63 14 0 5 -3 15 -6 24 -6 14 40 16 474 16 478 0 481 0 487 -21z m6892 -159 c66 -212 125 -363 210 -535 90 -183 154 -265 205 -265 23 0 34 9 58 49 51 83 112 90 174 20 71 -78 100 -278 51 -352 -37 -57 -107 -72 -181 -38 -94 43 -183 175 -355 523 -55 112 -98 196 -96 188 2 -8 54 -174 116 -368 61 -193 111 -354 111 -357 0 -23 -555 72 -572 97 -15 24 -8 28 47 28 113 0 146 46 121 167 -9 39 -40 156 -70 260 -110 379 -216 751 -216 757 0 4 77 5 172 4 l172 -3 53 -175z m-9557 -1825 c8 -10 9 -15 1 -15 -19 0 -43 -47 -36 -70 5 -16 13 -21 30 -17 22 4 23 1 18 -26 -7 -35 7 -47 56 -47 21 0 50 -10 73 -26 25 -17 46 -25 62 -22 23 5 27 0 41 -43 9 -27 14 -58 10 -69 -8 -26 -51 -36 -89 -20 -17 7 -60 16 -96 20 -75 8 -117 27 -153 70 -53 63 -48 142 13 224 44 60 51 64 70 41z"/>
</g>
<g id="layer104" fill="#e6db3f" stroke="none">
<path d="M8 2700 l-3 -2700 5998 0 5997 0 0 2700 0 2700 -5995 0 -5995 0 -2 -2700z m1073 1568 c14 -21 12 -23 -51 -78 -33 -29 -75 -72 -92 -96 -22 -31 -38 -44 -56 -44 -14 0 -38 -14 -59 -35 -19 -19 -36 -35 -38 -35 -9 0 -75 111 -75 127 0 11 10 29 23 41 24 23 196 119 237 133 34 11 101 4 111 -13z m774 12 c63 -24 35 -69 -64 -100 -36 -12 -82 -34 -101 -49 -52 -41 -55 -42 -89 -30 -24 8 -37 7 -62 -5 -18 -9 -33 -16 -34 -16 -2 0 -8 20 -14 44 -15 60 -14 133 2 143 11 8 135 17 274 21 34 1 73 -2 88 -8z m2942 -47 c14 -16 54 -102 89 -193 36 -91 72 -171 81 -177 14 -11 9 -13 -32 -13 -43 0 -47 1 -30 13 21 16 18 46 -13 117 l-20 45 -31 -68 c-36 -79 -38 -94 -13 -100 9 -3 -19 -5 -62 -6 l-79 -1 20 23 c11 12 44 75 73 140 l53 118 -19 46 c-20 50 -44 68 -44 34 0 -26 -29 -42 -52 -30 -25 13 -22 45 4 63 32 22 47 20 75 -11z m2096 17 c-21 -8 -23 -16 -23 -80 l0 -71 22 15 c28 20 61 20 97 1 75 -38 82 -187 12 -250 -28 -24 -84 -25 -111 0 -18 16 -20 16 -20 2 0 -14 -11 -17 -62 -17 -48 1 -59 3 -45 11 15 9 17 29 17 194 0 165 -2 185 -17 194 -13 8 5 10 67 10 61 0 79 -3 63 -9z m327 3 c-28 -10 -35 -30 -32 -91 4 -61 4 -62 25 -47 40 28 103 13 132 -32 22 -33 30 -113 16 -155 -24 -73 -103 -106 -151 -63 -18 16 -20 16 -20 2 0 -14 -11 -17 -62 -17 -48 1 -59 3 -45 11 15 9 17 29 17 194 0 165 -2 185 -17 194 -13 8 5 10 67 10 47 0 78 -3 70 -6z m868 -19 c34 -22 48 -58 34 -89 -15 -33 -49 -45 -128 -45 -51 0 -66 -4 -71 -16 -8 -21 25 -47 51 -40 27 7 102 -27 115 -52 14 -26 14 -68 1 -93 -9 -16 -7 -19 15 -19 14 0 25 -6 25 -14 0 -10 -21 -15 -81 -18 -103 -6 -123 -2 -159 32 -39 37 -41 90 -5 125 13 14 29 25 36 25 6 0 -3 13 -20 29 -34 32 -41 71 -16 91 14 11 13 14 -5 27 -58 41 19 87 130 77 30 -3 65 -12 78 -20z m2237 20 c21 -8 41 -49 110 -224 31 -80 64 -153 72 -162 15 -17 13 -18 -33 -17 -39 0 -45 2 -26 9 12 5 22 14 22 19 0 12 -42 124 -50 134 -4 4 -21 -25 -39 -65 -30 -68 -31 -73 -15 -85 15 -11 5 -13 -61 -13 -65 0 -76 2 -62 13 9 6 43 70 76 141 58 128 59 129 44 165 -19 45 -33 62 -44 55 -5 -3 -9 -14 -9 -25 0 -26 -46 -26 -60 1 -8 15 -6 24 10 40 21 21 37 24 65 14z m-7058 -186 c6 -35 9 -65 8 -66 -2 -2 -11 10 -19 26 -27 52 -62 72 -126 72 -68 0 -70 -2 -70 -102 l0 -70 28 7 c35 8 41 14 57 61 14 37 14 34 14 -71 -1 -90 -3 -104 -11 -80 -15 42 -37 65 -65 65 -22 0 -23 -3 -23 -80 l0 -80 60 0 c51 0 65 4 85 25 14 13 25 31 25 39 0 8 5 18 10 21 6 4 10 -17 10 -54 l0 -61 -172 1 c-95 1 -164 4 -153 6 43 11 45 18 45 192 0 91 -4 171 -8 178 -4 7 -19 16 -32 22 -18 7 25 10 151 10 l176 1 10 -62z m159 40 c-11 -16 -16 -46 -16 -98 0 -86 17 -123 53 -118 21 3 22 9 25 106 2 85 0 103 -13 108 -35 14 -10 24 57 24 68 0 70 -1 55 -18 -13 -15 -17 -39 -17 -116 0 -106 -8 -132 -46 -146 -23 -9 -48 -3 -106 28 -5 2 -8 -3 -8 -12 0 -13 -12 -16 -57 -16 -44 1 -54 3 -40 11 15 9 17 26 17 126 0 99 -3 118 -17 129 -16 12 -8 13 55 14 l73 0 -15 -22z m321 4 c-12 -13 -17 -37 -17 -85 0 -104 28 -150 69 -113 10 9 25 14 34 10 32 -12 32 -66 1 -78 -20 -8 -69 18 -88 46 -16 22 -16 22 -16 -10 l0 -32 -57 0 c-44 1 -54 3 -40 11 25 15 26 223 0 251 -15 17 -13 18 57 18 70 0 72 -1 57 -18z m253 12 c0 -3 -7 -12 -15 -20 -12 -12 -15 -42 -15 -135 l0 -119 -57 0 c-44 1 -54 3 -40 11 15 9 17 26 17 126 0 99 -3 118 -17 129 -16 12 -8 13 55 14 39 0 72 -3 72 -6z m200 -16 c40 -27 56 -57 21 -38 -39 21 -83 9 -105 -29 -41 -70 -18 -210 28 -171 9 7 16 23 16 36 0 31 42 53 65 34 21 -17 19 -34 -8 -66 -19 -22 -32 -27 -68 -27 -81 0 -131 55 -131 143 0 114 96 176 182 118z m186 0 c-11 -16 -16 -46 -16 -104 0 -67 3 -84 19 -98 11 -10 28 -16 38 -14 16 3 18 16 21 102 2 81 0 102 -14 117 -17 18 -15 19 54 19 67 0 92 -10 57 -24 -12 -4 -15 -26 -15 -105 0 -116 -3 -127 -41 -146 -31 -16 -68 -8 -101 22 -17 15 -18 11 -18 -70 l0 -87 -57 0 c-44 1 -54 3 -40 11 15 9 17 29 17 194 0 158 -2 185 -15 185 -8 0 -15 5 -15 10 0 6 30 10 71 10 l70 0 -15 -22z m795 6 c20 -10 38 -32 51 -61 37 -85 0 -181 -80 -202 -90 -25 -162 37 -162 142 0 104 101 168 191 121z m239 1 c27 -14 30 -14 30 0 0 12 13 15 63 15 54 -1 60 -2 45 -14 -16 -11 -18 -31 -18 -140 l0 -126 -62 0 c-48 1 -59 3 -45 11 14 8 17 25 17 109 0 104 -12 135 -49 128 -14 -3 -16 -22 -19 -126 l-3 -122 -57 0 c-40 0 -52 3 -42 10 11 7 16 35 18 117 3 93 7 111 25 131 24 26 56 28 97 7z m298 1 c-15 -11 -18 -29 -18 -95 0 -45 5 -91 10 -102 11 -19 50 -27 50 -10 0 15 32 22 46 10 20 -16 17 -57 -3 -67 -22 -12 -52 -1 -77 27 -25 28 -36 27 -36 -4 0 -24 -3 -25 -57 -24 -32 1 -50 3 -40 6 15 4 17 19 17 127 0 81 -4 126 -12 134 -9 9 5 12 63 12 64 -1 72 -2 57 -14z m397 -10 c18 -18 25 -36 25 -65 0 -34 -5 -44 -36 -68 -20 -15 -51 -40 -68 -56 -30 -26 -30 -28 -12 -42 11 -8 24 -15 28 -15 10 0 47 37 65 66 11 17 13 13 11 -26 -2 -52 -7 -67 -18 -50 -6 10 -15 10 -38 2 -41 -14 -81 -2 -105 31 -31 41 -14 82 56 135 44 33 57 50 55 66 -5 37 -50 33 -87 -9 l-31 -36 0 43 0 43 65 3 c58 2 68 0 90 -22z m171 2 c-11 -16 -16 -46 -16 -104 0 -67 3 -84 19 -98 11 -10 28 -16 38 -14 16 3 18 16 21 102 2 81 0 102 -14 117 -17 18 -15 19 56 19 70 0 72 -1 57 -18 -14 -15 -17 -40 -17 -119 0 -83 -3 -105 -18 -124 -24 -29 -73 -29 -112 0 l-30 22 0 -86 0 -85 -57 0 c-44 1 -54 3 -40 11 15 9 17 29 17 191 0 160 -2 182 -17 194 -16 12 -8 13 55 14 l73 0 -15 -22z m383 8 c75 -39 93 -156 34 -226 -36 -43 -93 -56 -141 -33 -73 36 -101 118 -68 198 27 64 112 93 175 61z m848 -4 c-14 -15 -17 -41 -17 -140 l0 -122 -56 0 c-50 0 -54 1 -40 16 24 23 23 220 -1 246 -15 17 -13 18 57 18 70 0 72 -1 57 -18z m153 8 c0 -5 -4 -10 -10 -10 -13 0 -13 -176 0 -201 6 -11 21 -19 35 -19 l25 0 0 108 c0 71 -4 112 -12 120 -9 9 3 12 55 12 38 0 67 -4 67 -10 0 -5 -4 -10 -9 -10 -5 0 -10 -49 -13 -109 -3 -115 -11 -135 -56 -152 -19 -7 -34 -5 -63 11 -32 16 -39 17 -39 5 0 -12 -13 -15 -56 -15 -50 0 -54 1 -40 16 24 23 23 220 -1 246 -15 17 -13 18 50 18 38 0 67 -4 67 -10z m880 0 c0 -5 -7 -10 -15 -10 -13 0 -15 -21 -15 -130 l0 -130 -60 0 -60 0 20 20 c17 17 20 33 20 118 0 101 -4 114 -32 125 -31 11 -38 -25 -38 -212 l0 -181 -57 0 c-44 1 -54 3 -40 11 15 9 17 29 17 194 0 158 -2 185 -15 185 -8 0 -15 5 -15 10 0 6 55 10 145 10 90 0 145 -4 145 -10z m171 -19 c50 -51 33 -100 -57 -162 -25 -17 -44 -38 -44 -48 0 -43 59 -29 90 21 l20 33 0 -54 c0 -43 -3 -51 -13 -42 -9 7 -24 8 -46 1 -60 -17 -110 18 -111 76 0 34 29 69 85 104 38 24 50 47 34 66 -19 24 -50 16 -85 -22 l-34 -35 0 43 0 43 66 3 c61 2 68 0 95 -27z m197 13 c12 -8 22 -20 22 -26 0 -7 -5 -6 -15 2 -8 7 -22 10 -30 6 -12 -4 -15 -26 -15 -111 l0 -105 35 0 c24 0 35 -5 35 -15 0 -10 -11 -15 -35 -15 l-35 0 -1 -52 c0 -53 0 -53 -17 -28 -9 14 -36 44 -60 68 -38 36 -42 42 -23 42 20 0 21 4 21 102 0 91 2 104 22 125 25 27 64 30 96 7z m319 -80 c18 -49 34 -93 36 -98 1 -5 20 37 42 93 21 55 41 101 45 101 4 0 30 -60 56 -132 45 -122 51 -133 74 -133 l25 0 3 123 c2 104 0 122 -13 122 -8 0 -15 5 -15 10 0 6 30 10 71 10 l70 0 -15 -22 c-12 -17 -16 -50 -16 -140 l0 -118 -97 0 c-80 0 -94 2 -80 13 16 11 16 17 -7 82 -14 41 -26 64 -29 55 -48 -124 -48 -124 -30 -137 14 -11 4 -13 -58 -13 -41 0 -69 4 -63 8 29 19 32 46 12 97 -11 27 -21 51 -22 53 -5 4 -46 -114 -46 -131 0 -8 6 -18 13 -20 6 -3 -21 -6 -60 -6 -70 -1 -72 0 -55 17 9 9 37 72 62 140 25 67 49 121 54 119 5 -2 24 -43 43 -93z m568 72 c18 -18 25 -36 25 -65 0 -34 -5 -44 -36 -68 -20 -15 -51 -40 -68 -55 -29 -25 -30 -28 -14 -44 23 -23 60 -7 88 38 l20 33 0 -54 c0 -46 -2 -52 -15 -41 -10 9 -23 9 -43 2 -60 -21 -112 11 -112 69 0 43 8 55 66 99 42 31 54 47 52 63 -2 15 -11 23 -29 25 -21 2 -34 -6 -58 -35 l-31 -38 0 45 0 45 65 3 c58 2 68 0 90 -22z m248 -16 c22 -22 37 -43 33 -47 -3 -4 -13 3 -22 15 -10 15 -26 22 -48 22 -39 0 -63 -23 -72 -68 l-6 -32 76 0 c84 0 88 -3 62 -63 -20 -48 -50 -70 -94 -70 -75 0 -122 58 -122 150 0 84 42 131 119 132 26 1 42 -8 74 -39z m173 18 c-13 -18 -16 -56 -16 -205 l0 -183 -57 0 c-50 1 -56 2 -40 14 15 12 17 33 17 186 0 147 -2 176 -17 192 -15 17 -13 18 56 18 l72 0 -15 -22z m364 8 c15 -19 9 -56 -11 -69 -23 -14 -66 -1 -72 22 -11 45 53 82 83 47z m-6618 -341 c8 -19 8 -28 -2 -40 -25 -30 -80 -12 -80 25 0 44 63 55 82 15z m3522 3 c21 -30 4 -58 -34 -58 -38 0 -55 28 -34 58 8 12 24 22 34 22 10 0 26 -10 34 -22z m1020 0 c24 -40 -44 -80 -71 -42 -17 23 -16 29 3 49 20 20 53 16 68 -7z m1080 6 c19 -19 20 -36 4 -52 -26 -26 -78 -7 -78 28 0 38 46 53 74 24z m-8282 -411 c10 -9 18 -22 18 -30 0 -7 6 -24 14 -36 12 -20 20 -69 43 -272 l6 -60 10 40 c5 22 10 87 10 145 l2 105 40 7 c68 12 220 9 238 -4 18 -15 22 -71 12 -208 -14 -213 -49 -451 -85 -582 -10 -36 -16 -69 -14 -71 5 -4 -45 -328 -51 -335 -2 -2 -40 7 -86 19 -46 12 -123 24 -170 26 -148 9 -196 -27 -285 -213 -24 -50 -44 -95 -44 -100 1 -14 164 -113 190 -116 17 -2 25 3 28 17 2 11 22 66 44 122 46 115 28 104 202 123 54 6 101 9 104 5 3 -3 5 -27 5 -53 l-1 -47 10 56 c9 52 13 57 40 63 16 3 37 2 46 -3 9 -5 46 -11 82 -15 l65 -6 -24 19 -24 19 24 7 c35 11 83 9 194 -9 55 -8 233 -30 395 -47 162 -17 297 -33 299 -34 2 -2 -13 -138 -33 -302 -47 -382 -45 -347 -18 -351 12 -2 22 -8 22 -14 0 -26 -32 -263 -36 -267 -5 -5 -494 48 -506 55 -4 3 -8 16 -8 29 0 22 -3 24 -80 27 -78 3 -80 2 -80 -20 0 -20 -4 -23 -27 -18 -16 3 -116 15 -223 26 -107 11 -206 23 -220 26 l-26 5 16 142 c14 135 16 142 36 139 18 -2 22 4 28 35 12 75 9 80 -28 36 -30 -34 -146 -103 -175 -103 -5 0 0 17 11 39 12 25 17 48 13 64 -13 51 -49 42 -146 -35 -30 -24 -70 -53 -91 -65 l-36 -21 -65 53 c-110 91 -116 135 -58 390 38 167 50 287 51 492 0 90 4 154 10 158 6 3 10 33 10 65 0 60 38 306 65 415 21 86 33 194 27 235 -3 19 -16 52 -30 72 l-25 38 24 20 c77 66 172 118 218 119 14 1 33 -6 43 -16z m3408 -213 c66 -33 205 -180 284 -300 38 -58 73 -109 77 -113 3 -5 -9 42 -29 105 -45 148 -50 243 -12 283 44 47 76 58 160 53 146 -8 264 -88 377 -254 47 -70 54 -86 43 -99 -21 -26 -36 -17 -84 46 -54 73 -108 113 -141 105 -47 -12 -47 -11 111 -551 58 -198 119 -403 135 -455 16 -52 29 -100 29 -107 0 -10 -28 -13 -119 -13 -65 0 -139 3 -164 6 l-45 6 -22 84 c-13 46 -24 84 -26 84 -1 0 -10 -24 -19 -52 -24 -74 -57 -113 -110 -133 -127 -49 -325 40 -495 222 -154 165 -284 431 -320 656 -31 194 26 382 132 436 58 30 171 26 238 -9z m1561 11 c153 -39 267 -107 393 -234 l79 -79 -21 -20 -20 -20 -56 46 c-153 125 -330 168 -447 109 -110 -56 -156 -160 -146 -328 22 -381 263 -738 500 -740 52 0 62 3 82 27 31 36 23 60 -32 105 -54 45 -73 79 -73 134 0 115 128 177 235 115 129 -76 146 -267 33 -373 -73 -69 -238 -92 -388 -54 -318 79 -579 336 -686 676 -26 80 -29 105 -29 225 0 118 3 142 23 192 25 63 93 145 148 179 97 60 263 76 405 40z m923 -20 c82 -40 169 -120 232 -211 39 -58 45 -72 34 -85 -20 -25 -36 -18 -73 33 -101 136 -197 178 -197 87 0 -19 39 -159 86 -312 47 -153 109 -353 137 -445 l52 -168 80 0 80 0 23 -78 c12 -43 22 -81 22 -85 0 -4 -34 -7 -76 -7 -67 0 -75 -2 -70 -17 2 -10 27 -92 56 -183 28 -91 53 -173 56 -182 4 -15 -1 -18 -29 -18 -31 0 -48 14 -168 134 -142 141 -235 210 -369 272 -117 54 -123 57 -130 84 -4 14 -10 37 -14 53 l-6 27 96 0 c73 0 95 3 91 13 -28 77 -252 808 -264 861 -26 126 0 204 82 247 33 17 54 20 122 16 67 -3 93 -9 147 -36z m976 14 c132 -41 255 -120 378 -243 63 -63 69 -77 41 -95 -12 -7 -33 3 -87 42 -198 145 -401 179 -510 86 -56 -49 -74 -99 -73 -211 1 -51 3 -98 6 -106 4 -9 45 -19 128 -31 284 -38 507 -163 628 -349 96 -149 92 -306 -10 -375 -45 -30 -94 -43 -166 -43 -293 0 -615 187 -799 464 -153 229 -209 516 -133 681 52 112 105 158 217 190 74 20 301 14 380 -10z m956 -15 c117 -57 277 -232 476 -520 l17 -25 -8 30 c-5 17 -28 95 -51 175 -54 183 -58 259 -18 312 58 76 198 90 315 32 71 -36 172 -134 237 -232 46 -70 47 -74 30 -87 -11 -8 -22 -13 -27 -12 -4 1 -35 36 -70 77 -69 82 -110 106 -132 77 -16 -23 -19 -14 156 -597 77 -256 143 -474 146 -484 5 -18 -1 -19 -172 -13 -97 3 -178 7 -180 9 -2 2 -34 100 -70 218 -39 125 -82 242 -103 280 -182 329 -388 562 -473 535 -38 -12 -41 -3 232 -856 38 -119 69 -219 69 -223 0 -14 -100 -4 -330 35 -135 23 -248 47 -252 53 -4 6 -8 19 -8 29 0 14 9 17 44 17 58 0 96 29 96 75 0 49 -35 173 -150 530 -93 291 -103 327 -104 401 -1 72 2 85 26 122 61 91 173 107 304 42z m-5421 -11 c4 -11 5 -22 3 -23 -1 -2 -38 -8 -81 -14 -91 -12 -123 -30 -144 -80 -24 -57 -24 -54 175 -751 l27 -94 141 6 c111 4 151 9 186 25 87 38 125 123 114 250 l-7 73 27 -3 c26 -3 29 -10 110 -293 46 -159 95 -329 108 -377 l25 -88 -27 0 c-22 0 -32 9 -52 47 -43 82 -114 149 -204 193 -74 37 -91 42 -203 51 -67 6 -137 9 -156 7 l-34 -3 105 -362 105 -363 196 0 c130 0 218 5 262 14 172 37 247 120 272 300 11 83 13 87 36 84 23 -3 28 -16 87 -248 35 -135 64 -248 64 -252 0 -5 -355 -8 -789 -8 l-789 0 -4 25 c-4 21 -1 25 18 25 61 0 130 24 161 55 40 40 41 64 12 178 -31 121 -368 1295 -395 1374 -51 152 -109 204 -241 219 -35 3 -63 10 -63 14 0 5 -3 15 -6 24 -6 14 40 16 474 16 478 0 481 0 487 -21z m6892 -159 c66 -212 125 -363 210 -535 90 -183 154 -265 205 -265 23 0 34 9 58 49 51 83 112 90 174 20 71 -78 100 -278 51 -352 -37 -57 -107 -72 -181 -38 -94 43 -183 175 -355 523 -55 112 -98 196 -96 188 2 -8 54 -174 116 -368 61 -193 111 -354 111 -357 0 -23 -555 72 -572 97 -15 24 -8 28 47 28 113 0 146 46 121 167 -9 39 -40 156 -70 260 -110 379 -216 751 -216 757 0 4 77 5 172 4 l172 -3 53 -175z m-9557 -1825 c8 -10 9 -15 1 -15 -19 0 -43 -47 -36 -70 5 -16 13 -21 30 -17 22 4 23 1 18 -26 -7 -35 7 -47 56 -47 21 0 50 -10 73 -26 25 -17 46 -25 62 -22 23 5 27 0 41 -43 9 -27 14 -58 10 -69 -8 -26 -51 -36 -89 -20 -17 7 -60 16 -96 20 -75 8 -117 27 -153 70 -53 63 -48 142 13 224 44 60 51 64 70 41z"/>
</g>
<g id="layer105" fill="#f7a687" stroke="none">
<path d="M8 2700 l-3 -2700 5998 0 5997 0 0 2700 0 2700 -5995 0 -5995 0 -2 -2700z m1073 1568 c14 -21 12 -23 -51 -78 -33 -29 -75 -72 -92 -96 -22 -31 -38 -44 -56 -44 -14 0 -38 -14 -59 -35 -19 -19 -36 -35 -38 -35 -9 0 -75 111 -75 127 0 11 10 29 23 41 24 23 196 119 237 133 34 11 101 4 111 -13z m774 12 c63 -24 35 -69 -64 -100 -36 -12 -82 -34 -101 -49 -52 -41 -55 -42 -89 -30 -24 8 -37 7 -62 -5 -18 -9 -33 -16 -34 -16 -2 0 -8 20 -14 44 -15 60 -14 133 2 143 11 8 135 17 274 21 34 1 73 -2 88 -8z m2942 -47 c14 -16 54 -102 89 -193 36 -91 72 -171 81 -177 14 -11 9 -13 -32 -13 -43 0 -47 1 -30 13 21 16 18 46 -13 117 l-20 45 -31 -68 c-36 -79 -38 -94 -13 -100 9 -3 -19 -5 -62 -6 l-79 -1 20 23 c11 12 44 75 73 140 l53 118 -19 46 c-20 50 -44 68 -44 34 0 -26 -29 -42 -52 -30 -25 13 -22 45 4 63 32 22 47 20 75 -11z m2096 17 c-21 -8 -23 -16 -23 -80 l0 -71 22 15 c28 20 61 20 97 1 75 -38 82 -187 12 -250 -28 -24 -84 -25 -111 0 -18 16 -20 16 -20 2 0 -14 -11 -17 -62 -17 -48 1 -59 3 -45 11 15 9 17 29 17 194 0 165 -2 185 -17 194 -13 8 5 10 67 10 61 0 79 -3 63 -9z m327 3 c-28 -10 -35 -30 -32 -91 4 -61 4 -62 25 -47 40 28 103 13 132 -32 22 -33 30 -113 16 -155 -24 -73 -103 -106 -151 -63 -18 16 -20 16 -20 2 0 -14 -11 -17 -62 -17 -48 1 -59 3 -45 11 15 9 17 29 17 194 0 165 -2 185 -17 194 -13 8 5 10 67 10 47 0 78 -3 70 -6z m868 -19 c34 -22 48 -58 34 -89 -15 -33 -49 -45 -128 -45 -51 0 -66 -4 -71 -16 -8 -21 25 -47 51 -40 27 7 102 -27 115 -52 14 -26 14 -68 1 -93 -9 -16 -7 -19 15 -19 14 0 25 -6 25 -14 0 -10 -21 -15 -81 -18 -103 -6 -123 -2 -159 32 -39 37 -41 90 -5 125 13 14 29 25 36 25 6 0 -3 13 -20 29 -34 32 -41 71 -16 91 14 11 13 14 -5 27 -58 41 19 87 130 77 30 -3 65 -12 78 -20z m2237 20 c21 -8 41 -49 110 -224 31 -80 64 -153 72 -162 15 -17 13 -18 -33 -17 -39 0 -45 2 -26 9 12 5 22 14 22 19 0 12 -42 124 -50 134 -4 4 -21 -25 -39 -65 -30 -68 -31 -73 -15 -85 15 -11 5 -13 -61 -13 -65 0 -76 2 -62 13 9 6 43 70 76 141 58 128 59 129 44 165 -19 45 -33 62 -44 55 -5 -3 -9 -14 -9 -25 0 -26 -46 -26 -60 1 -8 15 -6 24 10 40 21 21 37 24 65 14z m-7058 -186 c6 -35 9 -65 8 -66 -2 -2 -11 10 -19 26 -27 52 -62 72 -126 72 -68 0 -70 -2 -70 -102 l0 -70 28 7 c35 8 41 14 57 61 14 37 14 34 14 -71 -1 -90 -3 -104 -11 -80 -15 42 -37 65 -65 65 -22 0 -23 -3 -23 -80 l0 -80 60 0 c51 0 65 4 85 25 14 13 25 31 25 39 0 8 5 18 10 21 6 4 10 -17 10 -54 l0 -61 -172 1 c-95 1 -164 4 -153 6 43 11 45 18 45 192 0 91 -4 171 -8 178 -4 7 -19 16 -32 22 -18 7 25 10 151 10 l176 1 10 -62z m159 40 c-11 -16 -16 -46 -16 -98 0 -86 17 -123 53 -118 21 3 22 9 25 106 2 85 0 103 -13 108 -35 14 -10 24 57 24 68 0 70 -1 55 -18 -13 -15 -17 -39 -17 -116 0 -106 -8 -132 -46 -146 -23 -9 -48 -3 -106 28 -5 2 -8 -3 -8 -12 0 -13 -12 -16 -57 -16 -44 1 -54 3 -40 11 15 9 17 26 17 126 0 99 -3 118 -17 129 -16 12 -8 13 55 14 l73 0 -15 -22z m321 4 c-12 -13 -17 -37 -17 -85 0 -104 28 -150 69 -113 10 9 25 14 34 10 32 -12 32 -66 1 -78 -20 -8 -69 18 -88 46 -16 22 -16 22 -16 -10 l0 -32 -57 0 c-44 1 -54 3 -40 11 25 15 26 223 0 251 -15 17 -13 18 57 18 70 0 72 -1 57 -18z m253 12 c0 -3 -7 -12 -15 -20 -12 -12 -15 -42 -15 -135 l0 -119 -57 0 c-44 1 -54 3 -40 11 15 9 17 26 17 126 0 99 -3 118 -17 129 -16 12 -8 13 55 14 39 0 72 -3 72 -6z m200 -16 c40 -27 56 -57 21 -38 -39 21 -83 9 -105 -29 -41 -70 -18 -210 28 -171 9 7 16 23 16 36 0 31 42 53 65 34 21 -17 19 -34 -8 -66 -19 -22 -32 -27 -68 -27 -81 0 -131 55 -131 143 0 114 96 176 182 118z m186 0 c-11 -16 -16 -46 -16 -104 0 -67 3 -84 19 -98 11 -10 28 -16 38 -14 16 3 18 16 21 102 2 81 0 102 -14 117 -17 18 -15 19 54 19 67 0 92 -10 57 -24 -12 -4 -15 -26 -15 -105 0 -116 -3 -127 -41 -146 -31 -16 -68 -8 -101 22 -17 15 -18 11 -18 -70 l0 -87 -57 0 c-44 1 -54 3 -40 11 15 9 17 29 17 194 0 158 -2 185 -15 185 -8 0 -15 5 -15 10 0 6 30 10 71 10 l70 0 -15 -22z m795 6 c20 -10 38 -32 51 -61 37 -85 0 -181 -80 -202 -90 -25 -162 37 -162 142 0 104 101 168 191 121z m239 1 c27 -14 30 -14 30 0 0 12 13 15 63 15 54 -1 60 -2 45 -14 -16 -11 -18 -31 -18 -140 l0 -126 -62 0 c-48 1 -59 3 -45 11 14 8 17 25 17 109 0 104 -12 135 -49 128 -14 -3 -16 -22 -19 -126 l-3 -122 -57 0 c-40 0 -52 3 -42 10 11 7 16 35 18 117 3 93 7 111 25 131 24 26 56 28 97 7z m298 1 c-15 -11 -18 -29 -18 -95 0 -45 5 -91 10 -102 11 -19 50 -27 50 -10 0 15 32 22 46 10 20 -16 17 -57 -3 -67 -22 -12 -52 -1 -77 27 -25 28 -36 27 -36 -4 0 -24 -3 -25 -57 -24 -32 1 -50 3 -40 6 15 4 17 19 17 127 0 81 -4 126 -12 134 -9 9 5 12 63 12 64 -1 72 -2 57 -14z m397 -10 c18 -18 25 -36 25 -65 0 -34 -5 -44 -36 -68 -20 -15 -51 -40 -68 -56 -30 -26 -30 -28 -12 -42 11 -8 24 -15 28 -15 10 0 47 37 65 66 11 17 13 13 11 -26 -2 -52 -7 -67 -18 -50 -6 10 -15 10 -38 2 -41 -14 -81 -2 -105 31 -31 41 -14 82 56 135 44 33 57 50 55 66 -5 37 -50 33 -87 -9 l-31 -36 0 43 0 43 65 3 c58 2 68 0 90 -22z m171 2 c-11 -16 -16 -46 -16 -104 0 -67 3 -84 19 -98 11 -10 28 -16 38 -14 16 3 18 16 21 102 2 81 0 102 -14 117 -17 18 -15 19 56 19 70 0 72 -1 57 -18 -14 -15 -17 -40 -17 -119 0 -83 -3 -105 -18 -124 -24 -29 -73 -29 -112 0 l-30 22 0 -86 0 -85 -57 0 c-44 1 -54 3 -40 11 15 9 17 29 17 191 0 160 -2 182 -17 194 -16 12 -8 13 55 14 l73 0 -15 -22z m383 8 c75 -39 93 -156 34 -226 -36 -43 -93 -56 -141 -33 -73 36 -101 118 -68 198 27 64 112 93 175 61z m848 -4 c-14 -15 -17 -41 -17 -140 l0 -122 -56 0 c-50 0 -54 1 -40 16 24 23 23 220 -1 246 -15 17 -13 18 57 18 70 0 72 -1 57 -18z m153 8 c0 -5 -4 -10 -10 -10 -13 0 -13 -176 0 -201 6 -11 21 -19 35 -19 l25 0 0 108 c0 71 -4 112 -12 120 -9 9 3 12 55 12 38 0 67 -4 67 -10 0 -5 -4 -10 -9 -10 -5 0 -10 -49 -13 -109 -3 -115 -11 -135 -56 -152 -19 -7 -34 -5 -63 11 -32 16 -39 17 -39 5 0 -12 -13 -15 -56 -15 -50 0 -54 1 -40 16 24 23 23 220 -1 246 -15 17 -13 18 50 18 38 0 67 -4 67 -10z m880 0 c0 -5 -7 -10 -15 -10 -13 0 -15 -21 -15 -130 l0 -130 -60 0 -60 0 20 20 c17 17 20 33 20 118 0 101 -4 114 -32 125 -31 11 -38 -25 -38 -212 l0 -181 -57 0 c-44 1 -54 3 -40 11 15 9 17 29 17 194 0 158 -2 185 -15 185 -8 0 -15 5 -15 10 0 6 55 10 145 10 90 0 145 -4 145 -10z m171 -19 c50 -51 33 -100 -57 -162 -25 -17 -44 -38 -44 -48 0 -43 59 -29 90 21 l20 33 0 -54 c0 -43 -3 -51 -13 -42 -9 7 -24 8 -46 1 -60 -17 -110 18 -111 76 0 34 29 69 85 104 38 24 50 47 34 66 -19 24 -50 16 -85 -22 l-34 -35 0 43 0 43 66 3 c61 2 68 0 95 -27z m197 13 c12 -8 22 -20 22 -26 0 -7 -5 -6 -15 2 -8 7 -22 10 -30 6 -12 -4 -15 -26 -15 -111 l0 -105 35 0 c24 0 35 -5 35 -15 0 -10 -11 -15 -35 -15 l-35 0 -1 -52 c0 -53 0 -53 -17 -28 -9 14 -36 44 -60 68 -38 36 -42 42 -23 42 20 0 21 4 21 102 0 91 2 104 22 125 25 27 64 30 96 7z m319 -80 c18 -49 34 -93 36 -98 1 -5 20 37 42 93 21 55 41 101 45 101 4 0 30 -60 56 -132 45 -122 51 -133 74 -133 l25 0 3 123 c2 104 0 122 -13 122 -8 0 -15 5 -15 10 0 6 30 10 71 10 l70 0 -15 -22 c-12 -17 -16 -50 -16 -140 l0 -118 -97 0 c-80 0 -94 2 -80 13 16 11 16 17 -7 82 -14 41 -26 64 -29 55 -48 -124 -48 -124 -30 -137 14 -11 4 -13 -58 -13 -41 0 -69 4 -63 8 29 19 32 46 12 97 -11 27 -21 51 -22 53 -5 4 -46 -114 -46 -131 0 -8 6 -18 13 -20 6 -3 -21 -6 -60 -6 -70 -1 -72 0 -55 17 9 9 37 72 62 140 25 67 49 121 54 119 5 -2 24 -43 43 -93z m568 72 c18 -18 25 -36 25 -65 0 -34 -5 -44 -36 -68 -20 -15 -51 -40 -68 -55 -29 -25 -30 -28 -14 -44 23 -23 60 -7 88 38 l20 33 0 -54 c0 -46 -2 -52 -15 -41 -10 9 -23 9 -43 2 -60 -21 -112 11 -112 69 0 43 8 55 66 99 42 31 54 47 52 63 -2 15 -11 23 -29 25 -21 2 -34 -6 -58 -35 l-31 -38 0 45 0 45 65 3 c58 2 68 0 90 -22z m248 -16 c22 -22 37 -43 33 -47 -3 -4 -13 3 -22 15 -10 15 -26 22 -48 22 -39 0 -63 -23 -72 -68 l-6 -32 76 0 c84 0 88 -3 62 -63 -20 -48 -50 -70 -94 -70 -75 0 -122 58 -122 150 0 84 42 131 119 132 26 1 42 -8 74 -39z m173 18 c-13 -18 -16 -56 -16 -205 l0 -183 -57 0 c-50 1 -56 2 -40 14 15 12 17 33 17 186 0 147 -2 176 -17 192 -15 17 -13 18 56 18 l72 0 -15 -22z m364 8 c15 -19 9 -56 -11 -69 -23 -14 -66 -1 -72 22 -11 45 53 82 83 47z m-6618 -341 c8 -19 8 -28 -2 -40 -25 -30 -80 -12 -80 25 0 44 63 55 82 15z m3522 3 c21 -30 4 -58 -34 -58 -38 0 -55 28 -34 58 8 12 24 22 34 22 10 0 26 -10 34 -22z m1020 0 c24 -40 -44 -80 -71 -42 -17 23 -16 29 3 49 20 20 53 16 68 -7z m1080 6 c19 -19 20 -36 4 -52 -26 -26 -78 -7 -78 28 0 38 46 53 74 24z m-8282 -411 c10 -9 18 -22 18 -30 0 -7 6 -24 14 -36 12 -20 20 -69 43 -272 l6 -60 10 40 c5 22 10 87 10 145 l2 105 40 7 c68 12 220 9 238 -4 18 -15 22 -71 12 -208 -14 -213 -49 -451 -85 -582 -10 -36 -16 -69 -14 -71 5 -4 -45 -328 -51 -335 -2 -2 -40 7 -86 19 -46 12 -123 24 -170 26 -148 9 -196 -27 -285 -213 -24 -50 -44 -95 -44 -100 1 -14 164 -113 190 -116 17 -2 25 3 28 17 2 11 22 66 44 122 46 115 28 104 202 123 54 6 101 9 104 5 3 -3 5 -27 5 -53 l-1 -47 10 56 c9 52 13 57 40 63 16 3 37 2 46 -3 9 -5 46 -11 82 -15 l65 -6 -24 19 -24 19 24 7 c35 11 83 9 194 -9 55 -8 233 -30 395 -47 162 -17 297 -33 299 -34 2 -2 -13 -138 -33 -302 -47 -382 -45 -347 -18 -351 12 -2 22 -8 22 -14 0 -25 -32 -263 -36 -267 -4 -4 -263 23 -889 94 -121 14 -234 27 -250 30 l-31 5 16 143 c14 135 16 142 36 139 18 -2 22 4 28 35 12 75 9 80 -28 36 -30 -34 -146 -103 -175 -103 -5 0 0 17 11 39 12 25 17 48 13 64 -13 51 -49 42 -146 -35 -30 -24 -70 -53 -91 -65 l-36 -21 -65 53 c-110 91 -116 135 -58 390 38 167 50 287 51 492 0 90 4 154 10 158 6 3 10 33 10 65 0 60 38 306 65 415 21 86 33 194 27 235 -3 19 -16 52 -30 72 l-25 38 24 20 c77 66 172 118 218 119 14 1 33 -6 43 -16z m3408 -213 c66 -33 205 -180 284 -300 38 -58 73 -109 77 -113 3 -5 -9 42 -29 105 -45 148 -50 243 -12 283 44 47 76 58 160 53 146 -8 264 -88 377 -254 47 -70 54 -86 43 -99 -21 -26 -36 -17 -84 46 -54 73 -108 113 -141 105 -47 -12 -47 -11 111 -551 58 -198 119 -403 135 -455 16 -52 29 -100 29 -107 0 -10 -28 -13 -119 -13 -65 0 -139 3 -164 6 l-45 6 -22 84 c-13 46 -24 84 -26 84 -1 0 -10 -24 -19 -52 -24 -74 -57 -113 -110 -133 -127 -49 -325 40 -495 222 -154 165 -284 431 -320 656 -31 194 26 382 132 436 58 30 171 26 238 -9z m1561 11 c153 -39 267 -107 393 -234 l79 -79 -21 -20 -20 -20 -56 46 c-153 125 -330 168 -447 109 -110 -56 -156 -160 -146 -328 22 -381 263 -738 500 -740 52 0 62 3 82 27 31 36 23 60 -32 105 -54 45 -73 79 -73 134 0 115 128 177 235 115 129 -76 146 -267 33 -373 -73 -69 -238 -92 -388 -54 -318 79 -579 336 -686 676 -26 80 -29 105 -29 225 0 118 3 142 23 192 25 63 93 145 148 179 97 60 263 76 405 40z m923 -20 c82 -40 169 -120 232 -211 39 -58 45 -72 34 -85 -20 -25 -36 -18 -73 33 -101 136 -197 178 -197 87 0 -19 39 -159 86 -312 47 -153 109 -353 137 -445 l52 -168 80 0 80 0 23 -78 c12 -43 22 -81 22 -85 0 -4 -34 -7 -76 -7 -67 0 -75 -2 -70 -17 2 -10 27 -92 56 -183 28 -91 53 -173 56 -182 4 -15 -1 -18 -29 -18 -31 0 -48 14 -168 134 -142 141 -235 210 -369 272 -117 54 -123 57 -130 84 -4 14 -10 37 -14 53 l-6 27 96 0 c73 0 95 3 91 13 -28 77 -252 808 -264 861 -26 126 0 204 82 247 33 17 54 20 122 16 67 -3 93 -9 147 -36z m976 14 c132 -41 255 -120 378 -243 63 -63 69 -77 41 -95 -12 -7 -33 3 -87 42 -198 145 -401 179 -510 86 -56 -49 -74 -99 -73 -211 1 -51 3 -98 6 -106 4 -9 45 -19 128 -31 284 -38 507 -163 628 -349 96 -149 92 -306 -10 -375 -45 -30 -94 -43 -166 -43 -293 0 -615 187 -799 464 -153 229 -209 516 -133 681 52 112 105 158 217 190 74 20 301 14 380 -10z m956 -15 c117 -57 277 -232 476 -520 l17 -25 -8 30 c-5 17 -28 95 -51 175 -54 183 -58 259 -18 312 58 76 198 90 315 32 71 -36 172 -134 237 -232 46 -70 47 -74 30 -87 -11 -8 -22 -13 -27 -12 -4 1 -35 36 -70 77 -69 82 -110 106 -132 77 -16 -23 -19 -14 156 -597 77 -256 143 -474 146 -484 5 -18 -1 -19 -172 -13 -97 3 -178 7 -180 9 -2 2 -34 100 -70 218 -39 125 -82 242 -103 280 -182 329 -388 562 -473 535 -38 -12 -41 -3 232 -856 38 -119 69 -219 69 -223 0 -14 -100 -4 -330 35 -135 23 -248 47 -252 53 -4 6 -8 19 -8 29 0 14 9 17 44 17 58 0 96 29 96 75 0 49 -35 173 -150 530 -93 291 -103 327 -104 401 -1 72 2 85 26 122 61 91 173 107 304 42z m-5421 -11 c4 -11 5 -22 3 -23 -1 -2 -38 -8 -81 -14 -91 -12 -123 -30 -144 -80 -24 -57 -24 -54 175 -751 l27 -94 141 6 c111 4 151 9 186 25 87 38 125 123 114 250 l-7 73 27 -3 c26 -3 29 -10 110 -293 46 -159 95 -329 108 -377 l25 -88 -27 0 c-22 0 -32 9 -52 47 -43 82 -114 149 -204 193 -74 37 -91 42 -203 51 -67 6 -137 9 -156 7 l-34 -3 105 -362 105 -363 196 0 c130 0 218 5 262 14 172 37 247 120 272 300 11 83 13 87 36 84 23 -3 28 -16 87 -248 35 -135 64 -248 64 -252 0 -5 -355 -8 -789 -8 l-789 0 -4 25 c-4 21 -1 25 18 25 61 0 130 24 161 55 40 40 41 64 12 178 -31 121 -368 1295 -395 1374 -51 152 -109 204 -241 219 -35 3 -63 10 -63 14 0 5 -3 15 -6 24 -6 14 40 16 474 16 478 0 481 0 487 -21z m6892 -159 c66 -212 125 -363 210 -535 90 -183 154 -265 205 -265 23 0 34 9 58 49 51 83 112 90 174 20 71 -78 100 -278 51 -352 -37 -57 -107 -72 -181 -38 -94 43 -183 175 -355 523 -55 112 -98 196 -96 188 2 -8 54 -174 116 -368 61 -193 111 -354 111 -357 0 -23 -555 72 -572 97 -15 24 -8 28 47 28 113 0 146 46 121 167 -9 39 -40 156 -70 260 -110 379 -216 751 -216 757 0 4 77 5 172 4 l172 -3 53 -175z m-9557 -1825 c8 -10 9 -15 1 -15 -19 0 -43 -47 -36 -70 5 -16 13 -21 30 -17 22 4 23 1 18 -26 -7 -35 7 -47 56 -47 21 0 50 -10 73 -26 25 -17 46 -25 62 -22 23 5 27 0 41 -43 9 -27 14 -58 10 -69 -8 -26 -51 -36 -89 -20 -17 7 -60 16 -96 20 -75 8 -117 27 -153 70 -53 63 -48 142 13 224 44 60 51 64 70 41z"/>
<path d="M6888 4099 c-15 -8 -18 -25 -18 -102 0 -99 7 -117 47 -117 32 0 46 34 46 115 0 101 -24 134 -75 104z"/>
<path d="M7208 4099 c-15 -8 -18 -25 -18 -102 0 -99 7 -117 47 -117 32 0 45 33 45 115 0 103 -23 134 -74 104z"/>
<path d="M7933 4230 c-26 -11 -31 -45 -7 -54 20 -8 102 -8 132 0 31 9 29 42 -4 54 -31 12 -91 12 -121 0z"/>
<path d="M7951 4001 c-30 -56 5 -160 46 -135 21 13 31 63 23 114 -4 29 -10 36 -32 38 -18 2 -30 -3 -37 -17z"/>
<path d="M5089 4093 c-10 -11 -14 -45 -13 -111 0 -81 3 -96 19 -108 16 -12 22 -12 39 0 18 12 21 25 24 105 2 51 -2 100 -8 111 -13 24 -43 26 -61 3z"/>
<path d="M6579 4094 c-15 -18 -19 -150 -6 -196 6 -22 13 -28 36 -28 17 0 31 6 35 16 10 26 7 184 -4 205 -13 23 -43 25 -61 3z"/>
<path d="M9930 3946 c0 -30 22 -74 40 -79 25 -6 39 12 47 57 l6 36 -47 0 c-32 0 -46 -4 -46 -14z"/>
<path d="M1532 1800 c0 -19 2 -27 5 -17 2 9 2 25 0 35 -3 9 -5 1 -5 -18z"/>
<path d="M1515 1695 c-3 -31 -5 -59 -2 -61 3 -3 8 20 12 51 3 31 5 59 2 61 -3 3 -8 -20 -12 -51z"/>
</g>
<g id="layer106" fill="#ffffff" stroke="none">
<path d="M8 2700 l-3 -2700 5998 0 5997 0 0 2700 0 2700 -5995 0 -5995 0 -2 -2700z m1073 1568 c14 -21 12 -23 -51 -78 -32 -28 -76 -73 -95 -100 l-36 -49 31 -58 c18 -32 35 -62 40 -68 4 -5 19 -30 32 -55 14 -25 71 -119 128 -210 56 -91 111 -181 122 -200 11 -19 33 -49 49 -65 16 -17 29 -37 29 -43 0 -7 6 -23 14 -35 12 -20 29 -123 40 -245 2 -23 6 -45 8 -47 12 -13 26 78 23 145 -2 41 0 95 5 120 5 25 19 151 31 280 12 129 23 244 25 254 2 11 11 68 20 128 16 100 16 112 0 166 -22 79 -21 149 2 160 27 15 323 25 355 13 65 -25 38 -69 -62 -101 -64 -21 -164 -86 -175 -115 -5 -15 8 -204 24 -342 5 -49 19 -169 31 -268 11 -99 25 -185 29 -190 34 -41 -20 -569 -80 -787 -10 -36 -16 -69 -13 -71 2 -3 -7 -73 -21 -157 -14 -84 -26 -160 -26 -170 0 -41 114 -53 170 -19 47 29 95 29 155 -1 50 -25 73 -60 39 -60 -10 0 -15 -2 -13 -5 8 -7 127 -22 439 -56 162 -17 297 -33 299 -34 2 -2 -13 -138 -33 -302 -47 -382 -45 -347 -18 -351 12 -2 22 -8 22 -14 0 -26 -32 -263 -36 -267 -2 -3 -176 15 -387 38 -210 24 -458 51 -552 62 -93 10 -184 21 -200 24 l-31 5 16 143 c14 135 16 142 36 139 18 -2 22 4 28 35 12 73 9 75 -42 25 -32 -32 -71 -57 -120 -77 -84 -34 -88 -37 -97 -87 -7 -36 -6 -38 19 -38 30 0 54 -32 63 -84 6 -40 -12 -148 -32 -185 -10 -20 -9 -32 7 -74 11 -28 17 -61 13 -74 -7 -29 -49 -40 -89 -23 -17 7 -60 16 -96 20 -75 8 -117 27 -153 70 -52 62 -48 142 10 222 48 65 73 126 73 176 0 35 -6 43 -66 91 -116 93 -124 139 -65 396 38 167 50 287 51 492 0 90 4 154 10 158 6 3 10 33 10 65 0 60 38 306 65 415 21 86 33 194 27 235 -2 19 -14 48 -25 63 -11 16 -23 43 -28 60 -5 18 -30 95 -55 172 -25 77 -75 231 -112 343 -36 111 -69 202 -73 202 -12 0 -79 107 -79 127 0 11 10 29 23 41 24 23 196 119 237 133 34 11 101 4 111 -13z m3712 -21 c10 -7 49 -91 87 -186 39 -96 77 -183 86 -193 16 -17 15 -18 -32 -18 -38 1 -45 3 -31 11 9 5 17 18 17 27 0 21 -41 122 -50 122 -4 0 -19 -30 -33 -67 -25 -63 -26 -69 -10 -80 14 -11 4 -13 -60 -13 -70 0 -98 10 -64 23 8 3 40 64 71 135 l58 130 -17 33 c-29 57 -39 65 -45 39 -12 -52 -70 -47 -70 6 0 39 57 58 93 31z m2100 1 c-20 -10 -23 -19 -23 -75 0 -58 9 -78 25 -53 10 16 78 12 103 -6 33 -23 52 -67 52 -124 0 -66 -21 -115 -59 -134 -37 -20 -58 -20 -93 -2 -16 8 -28 11 -28 5 0 -5 -28 -9 -62 -9 -48 1 -59 3 -45 11 15 9 17 29 17 191 0 160 -2 182 -17 194 -15 11 -6 13 67 13 68 0 81 -2 63 -11z m320 0 c-20 -10 -23 -19 -23 -75 0 -60 1 -63 19 -53 31 16 86 12 113 -10 37 -28 51 -71 46 -138 -7 -105 -75 -157 -150 -118 -16 8 -28 11 -28 5 0 -5 -28 -9 -62 -9 -55 1 -61 2 -45 14 15 12 17 33 17 191 0 158 -2 179 -17 191 -15 11 -6 13 67 13 68 0 81 -2 63 -11z m882 -12 c42 -27 47 -104 8 -122 -10 -4 -52 -10 -93 -13 -68 -5 -75 -8 -78 -28 -3 -20 1 -23 32 -23 81 0 136 -42 136 -105 0 -22 -5 -46 -12 -53 -9 -9 -6 -12 15 -12 16 0 27 -5 27 -14 0 -17 -165 -31 -202 -17 -69 26 -90 113 -38 161 l29 27 -24 23 c-28 27 -33 71 -10 90 14 11 13 15 -5 27 -32 22 -22 55 20 71 47 16 162 10 195 -12z m2244 7 c12 -10 51 -94 90 -191 39 -96 78 -180 88 -188 16 -12 12 -13 -36 -14 -53 0 -53 0 -31 18 l22 18 -27 64 c-15 36 -28 66 -29 68 -2 1 -15 -29 -31 -68 -23 -57 -26 -72 -15 -85 11 -13 3 -15 -66 -15 l-77 0 20 23 c12 12 30 42 41 67 11 25 34 76 51 114 17 38 31 74 31 80 0 6 -10 31 -21 56 l-21 45 -14 -32 c-17 -40 -49 -44 -66 -8 -23 50 45 86 91 48z m-7076 -130 c3 -10 8 -40 12 -67 7 -53 -4 -56 -30 -6 -20 40 -63 60 -125 60 l-50 0 0 -84 c0 -78 1 -84 19 -79 25 6 46 30 59 68 8 24 10 10 11 -80 l0 -110 -22 45 c-15 30 -29 46 -44 48 -22 3 -23 1 -23 -77 l0 -81 46 0 c66 0 113 30 114 73 0 9 5 17 10 17 6 0 10 -27 10 -60 l0 -60 -172 1 c-125 0 -166 3 -148 10 13 6 28 15 32 22 4 7 8 85 8 174 0 155 -1 163 -22 177 -12 8 -25 13 -30 10 -4 -3 -8 0 -8 5 0 7 58 11 174 11 158 0 175 -2 179 -17z m177 7 c0 -5 -4 -10 -10 -10 -13 0 -13 -176 0 -201 13 -23 46 -25 54 -3 3 9 6 56 6 105 0 70 -3 91 -15 95 -36 14 -9 24 62 24 l77 0 -22 -20 c-20 -19 -22 -31 -22 -125 0 -100 -1 -104 -26 -124 -15 -12 -37 -21 -49 -21 -12 0 -34 9 -49 21 -21 17 -26 18 -26 5 0 -13 -12 -16 -62 -16 -48 1 -59 3 -45 11 25 15 26 223 0 251 -15 17 -13 18 55 18 41 0 72 -4 72 -10z m330 1 c0 -5 -9 -11 -20 -14 -18 -5 -20 -13 -19 -74 1 -81 9 -113 31 -127 13 -8 22 -6 38 9 26 24 53 11 58 -28 2 -18 8 -24 18 -20 21 8 21 231 -1 239 -35 14 -10 24 60 24 43 0 75 -4 75 -10 0 -5 -7 -10 -15 -10 -13 0 -15 -21 -15 -131 l0 -130 -65 2 c-36 1 -68 -1 -72 -4 -14 -15 -44 -6 -78 24 l-35 31 0 -26 c0 -25 -2 -26 -57 -26 -54 0 -55 1 -40 18 23 26 25 213 2 236 -8 8 -15 17 -15 20 0 3 34 6 75 6 41 0 75 -4 75 -9z m445 -22 c19 -17 32 -35 29 -41 -4 -5 -13 -3 -23 6 -26 24 -64 19 -91 -9 -20 -21 -25 -39 -28 -93 -3 -58 -1 -70 17 -86 20 -18 20 -18 32 10 21 53 26 59 53 62 51 6 47 -67 -6 -94 -133 -69 -252 134 -143 243 28 28 40 33 79 33 36 0 52 -6 81 -31z m185 21 c0 -5 -4 -10 -10 -10 -15 0 -13 -193 2 -208 17 -17 45 -15 52 4 3 9 6 56 6 105 0 70 -3 91 -15 95 -35 14 -10 24 55 24 39 0 70 -3 70 -6 0 -3 -7 -12 -15 -20 -11 -12 -15 -40 -15 -115 0 -93 -2 -102 -25 -124 -30 -30 -64 -32 -99 -4 l-26 20 0 -80 0 -81 -62 0 c-55 1 -61 2 -45 14 15 12 17 33 17 190 0 148 -2 178 -15 182 -35 14 -10 24 55 24 40 0 70 -4 70 -10z m795 -12 c55 -43 70 -129 35 -197 -47 -93 -178 -92 -226 1 -35 67 -12 172 45 203 41 22 113 19 146 -7z m233 6 c20 -14 22 -14 22 0 0 13 13 16 62 16 59 0 60 -1 45 -18 -14 -15 -17 -41 -17 -140 l0 -122 -62 0 c-48 1 -59 3 -45 11 14 8 17 25 17 108 0 85 -3 100 -20 116 -16 15 -22 15 -35 5 -12 -10 -15 -37 -15 -126 l0 -114 -62 0 c-51 0 -59 2 -46 13 13 9 17 36 20 119 3 87 7 110 22 127 23 25 81 28 114 5z m293 -3 c-22 -17 -23 -23 -20 -99 3 -60 9 -86 21 -99 16 -16 18 -16 37 1 31 28 55 17 59 -26 2 -29 -1 -38 -16 -42 -27 -9 -67 8 -86 36 l-16 22 0 -27 c0 -27 -1 -27 -62 -27 -48 1 -59 3 -45 11 15 9 17 26 17 129 0 100 -3 120 -15 120 -8 0 -15 5 -15 10 0 6 34 10 83 10 81 0 82 -1 58 -19z m395 -5 c21 -17 28 -33 28 -59 0 -42 -12 -57 -81 -109 -51 -37 -60 -59 -27 -72 16 -6 74 40 74 60 0 8 5 14 10 14 13 0 13 -87 1 -95 -5 -3 -12 -1 -16 4 -4 7 -15 7 -31 1 -42 -16 -64 -12 -95 19 -41 41 -38 74 9 120 20 20 51 46 67 57 25 18 28 25 19 40 -19 31 -43 28 -80 -11 -19 -21 -36 -36 -38 -34 -1 2 -1 22 1 44 l5 40 63 3 c55 2 67 -1 91 -22z m182 10 c-15 -11 -18 -29 -18 -108 0 -101 9 -123 47 -116 16 3 18 16 21 102 2 81 0 102 -14 117 -17 18 -15 19 61 19 l79 0 -22 -21 c-20 -18 -22 -29 -21 -122 1 -99 0 -102 -27 -125 -31 -27 -73 -25 -106 5 -17 15 -18 13 -18 -65 l0 -82 -62 0 c-55 1 -61 2 -45 14 15 12 17 33 17 186 0 147 -2 176 -17 192 -15 17 -13 18 63 18 68 -1 77 -3 62 -14z m387 -8 c79 -62 70 -204 -16 -250 -92 -49 -189 15 -189 125 0 60 24 113 59 132 41 22 113 19 146 -7z m995 13 c0 -5 -7 -11 -15 -15 -12 -4 -15 -24 -15 -94 0 -76 3 -92 20 -107 39 -35 50 -15 50 94 0 56 -4 103 -10 106 -26 16 -4 25 60 25 65 0 90 -10 55 -24 -12 -4 -15 -26 -15 -103 0 -110 -11 -143 -54 -158 -22 -8 -35 -5 -67 12 -30 17 -39 18 -39 7 0 -10 -14 -14 -56 -14 -45 0 -54 3 -46 13 6 7 11 55 12 107 2 146 3 140 -24 140 -13 0 -27 -7 -30 -16 -3 -9 -6 -67 -6 -130 l0 -114 -62 0 c-54 0 -59 2 -44 13 34 25 34 247 0 247 -8 0 -14 5 -14 10 0 6 57 10 150 10 83 0 150 -4 150 -9z m870 0 c0 -5 -7 -11 -15 -15 -12 -4 -15 -29 -15 -131 l0 -125 -62 0 c-52 0 -59 2 -45 13 15 11 17 28 15 127 -3 111 -4 115 -25 118 l-23 3 0 -195 0 -196 -62 0 c-55 1 -61 2 -45 14 15 12 17 33 17 190 0 148 -2 178 -15 182 -42 17 -1 24 130 24 80 0 145 -4 145 -9z m175 -17 c48 -52 28 -111 -56 -165 -50 -32 -58 -46 -38 -66 16 -16 60 7 79 41 19 36 34 33 26 -5 -3 -17 -6 -40 -6 -51 0 -17 -3 -18 -14 -9 -11 9 -20 9 -35 2 -56 -30 -123 9 -123 71 0 47 3 50 68 99 54 40 70 74 40 85 -20 8 -73 -22 -81 -46 -11 -34 -25 -22 -25 23 l0 42 70 3 c65 2 73 0 95 -24z m202 4 c30 -28 30 -43 -1 -23 -36 24 -44 3 -43 -105 l2 -95 33 -3 c46 -5 43 -32 -3 -32 l-35 0 0 -51 0 -52 -59 64 c-48 53 -55 65 -40 67 17 3 19 13 19 109 0 85 3 110 17 125 23 25 81 24 110 -4z m291 -21 c10 -23 27 -67 37 -97 l18 -55 15 35 c9 19 25 62 38 95 12 33 28 60 35 60 9 0 31 -48 58 -127 43 -124 56 -143 86 -132 12 5 15 28 15 120 0 93 -3 116 -15 120 -35 14 -10 24 60 24 43 0 75 -4 75 -10 0 -5 -7 -10 -15 -10 -13 0 -15 -21 -15 -130 l0 -130 -100 0 c-96 0 -100 1 -88 19 9 16 8 30 -7 75 -10 30 -21 53 -24 50 -9 -9 -41 -99 -41 -116 0 -9 6 -19 13 -21 6 -3 -24 -6 -68 -6 -76 -1 -79 0 -56 15 25 18 25 47 1 109 l-12 30 -24 -59 c-27 -67 -29 -82 -11 -89 6 -3 -21 -6 -61 -6 l-73 -1 18 24 c11 13 39 76 63 140 23 64 47 116 51 116 4 0 17 -19 27 -43z m588 22 c31 -29 40 -74 20 -104 -9 -13 -41 -43 -71 -65 -30 -22 -55 -45 -55 -50 0 -5 9 -14 21 -20 18 -10 26 -6 60 30 l39 41 0 -51 c0 -45 -10 -64 -24 -41 -3 4 -24 4 -46 -2 -34 -10 -43 -8 -67 9 -62 47 -50 104 35 168 52 39 66 69 36 80 -27 10 -36 7 -70 -30 l-34 -35 0 43 0 43 67 3 c56 2 70 -1 89 -19z m232 5 c24 -17 58 -74 44 -74 -5 0 -17 9 -27 20 -31 34 -77 24 -100 -21 -28 -54 -23 -59 60 -59 70 0 75 -2 75 -21 0 -36 -31 -89 -61 -104 -38 -20 -68 -19 -106 5 -115 70 -78 270 50 270 23 0 53 -7 65 -16z m212 6 c0 -5 -6 -10 -14 -10 -22 0 -26 -33 -26 -217 l0 -173 -60 0 -60 0 20 20 c18 18 20 33 20 185 0 156 -1 165 -22 185 l-22 20 82 0 c48 0 82 -4 82 -10z m344 -11 c11 -17 12 -27 4 -45 -6 -13 -15 -25 -20 -25 -4 -1 -14 -2 -20 -3 -39 -6 -67 38 -48 74 15 27 64 27 84 -1z m-6626 -321 c24 -24 9 -67 -24 -72 -29 -5 -54 12 -54 37 0 29 18 47 45 47 12 0 26 -5 33 -12z m3532 -14 c13 -34 -2 -54 -40 -54 -39 0 -56 23 -42 55 17 36 69 35 82 -1z m1008 17 c8 -4 12 -21 10 -37 -4 -35 -43 -49 -70 -26 -45 39 9 96 60 63z m1090 -3 c24 -24 9 -67 -24 -72 -29 -5 -54 12 -54 37 0 29 18 47 45 47 12 0 26 -5 33 -12z m-4878 -628 c66 -33 205 -180 284 -300 38 -58 73 -109 77 -113 3 -5 -9 42 -29 105 -45 148 -50 243 -12 283 44 47 76 58 160 53 146 -8 264 -88 377 -254 47 -70 54 -86 43 -99 -21 -26 -36 -17 -84 46 -54 73 -108 113 -141 105 -47 -12 -47 -11 111 -551 58 -198 119 -403 135 -455 16 -52 29 -100 29 -107 0 -10 -28 -13 -119 -13 -65 0 -139 3 -164 6 l-45 6 -22 84 c-13 46 -24 84 -26 84 -1 0 -10 -24 -19 -52 -24 -74 -57 -113 -110 -133 -127 -49 -325 40 -495 222 -154 165 -284 431 -320 656 -31 194 26 382 132 436 58 30 171 26 238 -9z m1561 11 c153 -39 267 -107 393 -234 l79 -79 -21 -20 -20 -20 -56 46 c-153 125 -330 168 -447 109 -110 -56 -156 -160 -146 -328 22 -381 263 -738 500 -740 52 0 62 3 82 27 31 36 23 60 -32 105 -54 45 -73 79 -73 134 0 115 128 177 235 115 129 -76 146 -267 33 -373 -73 -69 -238 -92 -388 -54 -318 79 -579 336 -686 676 -26 80 -29 105 -29 225 0 118 3 142 23 192 25 63 93 145 148 179 97 60 263 76 405 40z m923 -20 c82 -40 169 -120 232 -211 39 -58 45 -72 34 -85 -20 -25 -36 -18 -73 33 -101 136 -197 178 -197 87 0 -19 39 -159 86 -312 47 -153 109 -353 137 -445 l52 -168 80 0 80 0 23 -78 c12 -43 22 -81 22 -85 0 -4 -34 -7 -76 -7 -67 0 -75 -2 -70 -17 2 -10 27 -92 56 -183 28 -91 53 -173 56 -182 4 -15 -1 -18 -29 -18 -31 0 -48 14 -168 134 -142 141 -235 210 -369 272 -117 54 -123 57 -130 84 -4 14 -10 37 -14 53 l-6 27 96 0 c73 0 95 3 91 13 -28 77 -252 808 -264 861 -26 126 0 204 82 247 33 17 54 20 122 16 67 -3 93 -9 147 -36z m976 14 c132 -41 255 -120 378 -243 63 -63 69 -77 41 -95 -12 -7 -33 3 -87 42 -198 145 -401 179 -510 86 -56 -49 -74 -99 -73 -211 1 -51 3 -98 6 -106 4 -9 45 -19 128 -31 284 -38 507 -163 628 -349 96 -149 92 -306 -10 -375 -45 -30 -94 -43 -166 -43 -293 0 -615 187 -799 464 -153 229 -209 516 -133 681 52 112 105 158 217 190 74 20 301 14 380 -10z m956 -15 c117 -57 277 -232 476 -520 l17 -25 -8 30 c-5 17 -28 95 -51 175 -54 183 -58 259 -18 312 58 76 198 90 315 32 71 -36 172 -134 237 -232 46 -70 47 -74 30 -87 -11 -8 -22 -13 -27 -12 -4 1 -35 36 -70 77 -69 82 -110 106 -132 77 -16 -23 -19 -14 156 -597 77 -256 143 -474 146 -484 5 -18 -1 -19 -172 -13 -97 3 -178 7 -180 9 -2 2 -34 100 -70 218 -39 125 -82 242 -103 280 -182 329 -388 562 -473 535 -38 -12 -41 -3 232 -856 38 -119 69 -219 69 -223 0 -14 -100 -4 -330 35 -135 23 -248 47 -252 53 -4 6 -8 19 -8 29 0 14 9 17 44 17 58 0 96 29 96 75 0 49 -35 173 -150 530 -93 291 -103 327 -104 401 -1 72 2 85 26 122 61 91 173 107 304 42z m-5421 -11 c4 -11 5 -22 3 -23 -1 -2 -38 -8 -81 -14 -91 -12 -123 -30 -144 -80 -24 -57 -24 -54 175 -751 l27 -94 141 6 c111 4 151 9 186 25 87 38 125 123 114 250 l-7 73 27 -3 c26 -3 29 -10 110 -293 46 -159 95 -329 108 -377 l25 -88 -27 0 c-22 0 -32 9 -52 47 -43 82 -114 149 -204 193 -74 37 -91 42 -203 51 -67 6 -137 9 -156 7 l-34 -3 105 -362 105 -363 196 0 c130 0 218 5 262 14 172 37 247 120 272 300 11 83 13 87 36 84 23 -3 28 -16 87 -248 35 -135 64 -248 64 -252 0 -5 -355 -8 -789 -8 l-789 0 -4 25 c-4 21 -1 25 18 25 61 0 130 24 161 55 40 40 41 64 12 178 -31 121 -368 1295 -395 1374 -51 152 -109 204 -241 219 -35 3 -63 10 -63 14 0 5 -3 15 -6 24 -6 14 40 16 474 16 478 0 481 0 487 -21z m6892 -159 c66 -212 125 -363 210 -535 90 -183 154 -265 205 -265 23 0 34 9 58 49 51 83 112 90 174 20 71 -78 100 -278 51 -352 -37 -57 -107 -72 -181 -38 -94 43 -183 175 -355 523 -55 112 -98 196 -96 188 2 -8 54 -174 116 -368 61 -193 111 -354 111 -357 0 -23 -555 72 -572 97 -15 24 -8 28 47 28 113 0 146 46 121 167 -9 39 -40 156 -70 260 -110 379 -216 751 -216 757 0 4 77 5 172 4 l172 -3 53 -175z"/>
<path d="M6892 4094 c-20 -13 -22 -24 -22 -95 0 -91 10 -119 44 -119 32 0 46 37 46 124 0 58 -4 76 -18 89 -23 21 -22 21 -50 1z"/>
<path d="M7212 4094 c-20 -13 -22 -24 -22 -95 0 -91 10 -119 44 -119 32 0 46 37 46 121 0 102 -19 128 -68 93z"/>
<path d="M7941 4228 c-35 -19 -37 -36 -4 -49 32 -12 129 -3 139 13 19 31 -89 60 -135 36z"/>
<path d="M7952 4003 c-14 -36 -6 -115 13 -129 16 -12 21 -11 37 3 21 19 26 111 6 131 -18 18 -48 15 -56 -5z"/>
<path d="M5092 4098 c-8 -8 -12 -45 -12 -108 0 -81 3 -100 18 -113 16 -15 21 -15 38 -3 16 12 20 29 22 98 3 86 -10 130 -38 136 -9 1 -21 -3 -28 -10z"/>
<path d="M6586 4094 c-20 -19 -23 -193 -4 -212 19 -19 46 -14 59 9 17 32 8 197 -11 209 -21 13 -26 12 -44 -6z"/>
<path d="M9940 3927 c0 -36 15 -57 41 -57 20 0 29 20 29 61 0 27 -3 29 -35 29 -33 0 -35 -2 -35 -33z"/>
<path d="M4739 2904 c-23 -24 -24 -32 -24 -142 1 -136 26 -241 101 -427 122 -299 243 -440 340 -396 67 30 85 205 40 384 -44 174 -162 403 -266 520 -82 91 -144 111 -191 61z"/>
<path d="M7955 2527 c99 -327 279 -587 407 -587 56 0 78 26 78 95 0 107 -66 255 -160 358 -78 85 -161 127 -298 151 -31 5 -33 4 -27 -17z"/>
</g>


</svg>